<mxfile host="app.diagrams.net" modified="2024-06-20T13:49:35.301Z" agent="Mozilla/5.0 (Windows NT 10.0; Win64; x64) AppleWebKit/537.36 (KHTML, like Gecko) Chrome/126.0.0.0 Safari/537.36" etag="k_-clSOXiLzw37MbPJEZ" version="24.5.5" type="device">
  <diagram name="Page-1" id="PAry1mBWbd2LTeRyvYFI">
    <mxGraphModel dx="1004" dy="623" grid="1" gridSize="10" guides="1" tooltips="1" connect="1" arrows="1" fold="1" page="1" pageScale="1" pageWidth="827" pageHeight="1169" math="0" shadow="0">
      <root>
        <mxCell id="0" />
        <mxCell id="1" parent="0" />
        <mxCell id="Ajo_lANRQr-tIyGG9spP-4" value="" style="edgeStyle=orthogonalEdgeStyle;rounded=0;orthogonalLoop=1;jettySize=auto;html=1;" edge="1" parent="1" source="Ajo_lANRQr-tIyGG9spP-2" target="Ajo_lANRQr-tIyGG9spP-3">
          <mxGeometry relative="1" as="geometry" />
        </mxCell>
        <mxCell id="Ajo_lANRQr-tIyGG9spP-2" value="Create a file always&lt;div&gt;using touch&lt;/div&gt;" style="rounded=1;whiteSpace=wrap;html=1;" vertex="1" parent="1">
          <mxGeometry x="60" y="20" width="120" height="60" as="geometry" />
        </mxCell>
        <mxCell id="Ajo_lANRQr-tIyGG9spP-6" value="" style="edgeStyle=orthogonalEdgeStyle;rounded=0;orthogonalLoop=1;jettySize=auto;html=1;" edge="1" parent="1" source="Ajo_lANRQr-tIyGG9spP-3" target="Ajo_lANRQr-tIyGG9spP-5">
          <mxGeometry relative="1" as="geometry" />
        </mxCell>
        <mxCell id="Ajo_lANRQr-tIyGG9spP-3" value="Set file inode" style="rounded=1;whiteSpace=wrap;html=1;" vertex="1" parent="1">
          <mxGeometry x="60" y="130" width="120" height="60" as="geometry" />
        </mxCell>
        <mxCell id="Ajo_lANRQr-tIyGG9spP-8" value="" style="edgeStyle=orthogonalEdgeStyle;rounded=0;orthogonalLoop=1;jettySize=auto;html=1;" edge="1" parent="1" source="Ajo_lANRQr-tIyGG9spP-5" target="Ajo_lANRQr-tIyGG9spP-7">
          <mxGeometry relative="1" as="geometry" />
        </mxCell>
        <mxCell id="Ajo_lANRQr-tIyGG9spP-5" value="Set file permissions" style="rounded=1;whiteSpace=wrap;html=1;" vertex="1" parent="1">
          <mxGeometry x="60" y="220" width="120" height="60" as="geometry" />
        </mxCell>
        <mxCell id="Ajo_lANRQr-tIyGG9spP-7" value="Begin writing to file" style="rounded=1;whiteSpace=wrap;html=1;" vertex="1" parent="1">
          <mxGeometry x="60" y="310" width="120" height="60" as="geometry" />
        </mxCell>
      </root>
    </mxGraphModel>
  </diagram>
</mxfile>
